P3
46 46
255
3 0 0 3 0 0 3 2 0 0 1 0 0 3 0 1 3 0 2 1 0 1 0 12 4 0 1 0 0 5 0 0 5 3 0 0 3 0 0 
0 0 4 0 0 4 3 0 0 2 0 1 0 1 0 0 1 0 1 0 0 2 0 1 0 1 0 0 1 0 1 0 2 1 0 0 1 3 0 
0 1 0 1 0 0 1 0 0 0 2 0 0 1 0 1 0 0 2 0 3 0 1 0 0 1 0 1 0 2 2 0 1 0 1 0 0 2 1 
3 0 0 0 0 8 1 1 0 5 2 0 6 0 5 5 1 0 0 0 11 0 0 2 0 0 5 0 0 7 2 0 5 1 0 2 0 0 4 
2 3 8 1 0 7 0 2 0 1 0 0 1 0 0 0 2 0 0 1 0 1 0 0 1 0 0 0 2 0 0 0 2 0 0 2 1 1 3 
0 0 2 0 0 2 0 0 2 1 1 3 0 0 4 4 2 5 3 0 2 3 0 2 3 1 4 2 0 3 3 0 2 3 0 2 2 0 3 
0 0 4 3 0 2 4 0 3 1 0 4 3 1 6 3 0 2 3 0 2 4 2 5 0 0 7 1 1 9 0 0 0 1 0 5 0 1 0 
0 7 0 1 1 1 0 7 0 0 3 0 6 0 0 6 0 0 2 4 0 0 3 0 3 0 0 1 0 0 0 2 1 0 2 1 1 0 0 
1 0 0 0 2 0 0 2 0 1 0 0 3 2 0 0 1 0 0 1 0 3 2 0 1 0 0 0 1 0 0 1 0 2 1 0 0 1 0 
0 2 0 0 3 1 0 1 0 0 1 0 0 2 0 0 2 0 0 2 0 0 1 0 0 3 1 0 2 0 0 1 0 0 1 0 0 3 0 
0 2 0 0 1 0 6 2 0 6 0 2 6 0 0 0 0 9 0 3 7 0 1 0 2 3 0 0 2 5 0 2 0 56 45 13 
59 45 18 1 0 0 0 1 0 51 47 9 57 48 9 252 255 255 252 255 255 56 47 8 56 47 8 
252 255 255 252 255 255 58 49 8 56 48 0 0 2 1 0 1 0 59 51 2 58 51 0 252 255 253 
252 255 253 62 55 3 68 54 7 255 254 255 255 254 255 67 53 6 67 53 6 2 0 1 
2 0 1 65 51 4 66 52 5 1 0 0 1 0 0 70 53 7 71 55 6 255 253 252 255 253 252 
76 60 11 70 64 6 79 64 7 79 68 22 4 5 0 0 3 0 8 0 0 6 0 0 0 1 16 1 0 0 57 41 5 
58 39 6 7 0 0 6 1 0 58 45 11 61 43 7 255 253 254 255 253 254 62 44 6 62 44 6 
255 253 254 255 254 255 64 46 6 63 45 5 4 0 6 4 0 6 66 48 8 65 48 5 255 253 255 
255 253 255 68 51 8 66 53 11 254 253 255 255 254 255 65 52 10 65 52 10 
0 0 5 0 0 5 64 51 9 65 50 7 1 0 4 1 0 4 68 54 9 70 56 11 255 254 255 
255 254 255 78 61 15 83 64 5 79 65 2 72 66 16 4 0 1 0 0 0 8 0 0 4 0 9 0 1 0 
4 3 0 53 39 13 60 43 15 50 41 10 45 38 9 58 40 16 54 39 6 55 45 9 55 45 9 
56 42 7 56 42 7 55 45 9 56 47 8 57 43 8 64 49 10 59 46 11 59 47 9 65 50 11 
63 48 7 61 49 9 60 48 8 63 48 5 68 46 7 67 49 11 68 50 12 68 46 7 70 48 9 
66 48 10 68 50 12 72 50 11 72 49 8 71 51 14 70 51 11 74 51 9 75 52 8 78 57 14 
78 57 14 80 56 10 80 57 16 255 252 250 255 255 255 3 0 4 0 0 7 0 4 16 2 1 0 
0 1 0 3 3 0 50 44 22 51 42 9 51 43 4 52 43 2 56 41 2 54 41 9 54 38 12 56 41 12 
56 43 11 56 43 11 55 40 11 55 40 11 56 43 9 57 43 6 62 44 6 65 47 9 61 47 8 
62 49 7 65 48 5 66 49 6 62 49 5 64 53 8 61 48 4 59 46 2 62 51 6 61 50 5 
62 49 5 61 48 4 64 53 8 65 52 7 68 51 5 70 53 7 69 55 8 72 58 9 73 57 6 
76 59 7 77 64 11 79 63 12 255 250 244 255 252 249 3 3 0 0 2 0 0 0 7 0 1 2 
2 3 5 0 0 4 255 254 255 255 255 243 47 41 7 55 43 5 52 39 7 52 38 3 50 39 9 
51 40 10 55 41 6 54 40 3 50 39 7 50 39 7 54 40 3 58 42 9 54 41 6 57 44 9 
61 45 11 63 47 13 59 47 7 61 49 9 61 46 7 64 46 8 64 51 9 61 48 6 63 45 7 
63 45 7 63 50 8 62 49 7 67 49 11 70 51 11 66 51 8 69 55 10 74 53 10 78 57 12 
74 58 9 77 61 10 80 58 11 72 61 15 84 64 11 76 63 18 0 0 2 0 3 6 8 0 4 1 1 0 
1 0 0 0 1 0 252 255 255 255 254 255 50 41 2 52 39 7 49 41 5 49 39 4 49 38 6 
50 39 7 50 39 9 49 38 8 47 36 4 47 36 4 48 38 3 51 38 4 53 40 6 56 43 8 
58 46 8 60 46 7 60 46 7 60 46 9 59 45 8 61 45 9 60 44 8 60 44 8 60 44 8 
61 46 7 62 47 8 63 48 7 64 49 8 67 49 11 68 50 10 70 53 10 72 55 9 74 57 11 
75 59 10 77 59 13 77 59 13 70 65 9 81 57 11 73 61 13 4 0 1 0 2 0 3 0 0 3 0 0 
1 1 0 1 0 4 50 40 5 56 40 7 53 38 9 51 40 12 51 38 6 48 37 5 48 37 5 48 37 7 
48 37 7 47 36 6 46 35 5 46 35 3 48 37 5 50 37 5 52 39 5 55 42 7 57 45 7 
59 45 8 58 44 7 58 44 7 58 44 9 59 43 9 59 43 7 60 44 8 60 44 8 61 46 7 
61 46 7 62 47 8 63 48 7 67 49 9 69 51 11 71 54 10 72 55 9 73 57 8 74 58 9 
76 58 10 76 58 12 79 57 10 5 1 0 1 0 0 0 0 4 1 0 4 2 0 3 4 0 1 0 0 0 2 0 5 
52 41 9 57 41 8 53 38 9 49 37 11 52 39 7 47 36 6 46 35 5 46 35 7 45 33 7 
44 32 6 44 33 5 45 34 4 47 36 6 49 35 6 51 38 6 54 41 7 55 42 7 56 43 8 
56 42 7 55 41 6 55 40 7 56 42 7 57 43 8 58 44 7 59 45 8 59 45 8 60 46 7 
61 47 8 61 47 8 65 50 9 66 51 8 70 53 9 72 55 9 73 57 8 74 58 9 74 58 9 
74 57 11 78 55 11 4 0 0 1 0 0 1 0 5 0 0 4 2 2 4 0 0 0 1 0 0 0 1 0 0 1 2 2 0 1 
50 40 4 52 38 9 48 39 6 47 36 8 45 34 6 44 32 6 43 31 7 42 30 6 41 29 3 
43 32 4 45 34 6 49 35 8 50 36 7 52 39 7 54 41 7 54 41 7 54 41 7 54 39 6 
53 38 7 55 41 6 57 43 8 58 44 9 59 45 8 59 45 8 59 45 8 60 46 7 61 47 8 
64 49 8 65 50 7 68 54 9 72 55 9 73 57 8 73 57 8 73 56 10 73 56 10 67 61 9 
76 52 8 69 57 9 2 0 1 0 4 0 1 0 0 0 0 0 1 0 0 0 1 0 0 1 2 1 0 0 49 39 3 
52 38 9 47 38 5 45 35 8 43 33 6 41 31 6 40 30 5 39 29 4 39 29 4 41 31 4 
43 33 6 47 36 8 48 37 7 52 38 9 53 40 8 53 40 6 53 40 6 52 39 7 52 39 7 
56 41 8 57 43 8 57 43 8 58 44 9 57 43 6 58 44 7 60 46 9 61 47 10 64 49 8 
66 51 8 68 54 9 69 55 8 72 55 9 72 55 9 71 54 10 71 54 10 64 58 8 76 51 10 
71 59 11 1 0 0 0 3 0 1 0 0 4 0 1 0 0 0 1 0 4 51 40 8 55 38 8 52 36 10 48 36 10 
51 38 6 45 35 8 42 32 5 41 31 6 40 30 5 39 29 4 40 30 5 41 31 4 43 33 6 
47 36 8 48 37 7 49 38 6 52 39 7 52 39 5 53 40 6 53 40 8 54 41 9 57 42 9 
57 42 9 57 42 9 56 42 7 56 42 7 58 44 7 59 45 8 61 47 10 65 50 9 66 51 10 
67 52 9 68 54 9 67 53 8 69 52 9 68 51 8 68 51 8 71 49 8 5 0 4 2 2 2 1 1 3 
0 0 2 2 1 6 3 0 2 1 1 1 1 0 5 50 39 7 55 38 8 51 35 9 48 36 10 48 35 3 43 34 5 
41 31 4 40 30 5 40 30 5 41 31 6 41 31 6 43 33 6 44 35 6 47 36 8 47 36 6 
48 37 5 49 39 4 51 38 4 53 40 6 54 41 7 55 42 10 57 42 9 56 41 8 56 41 8 
55 41 6 56 42 7 57 43 8 58 44 7 59 45 8 63 48 9 64 49 10 65 50 9 65 50 9 
65 50 7 64 49 8 66 48 8 66 48 10 70 48 9 1 0 2 0 0 0 1 1 3 0 0 2 3 2 7 0 0 0 
1 0 0 0 1 0 252 255 255 255 254 255 48 38 2 48 34 5 44 35 2 42 33 4 41 31 4 
40 30 3 41 31 6 42 32 7 42 32 5 44 34 7 46 37 8 46 35 5 47 36 6 47 36 4 
48 38 3 51 38 3 52 39 5 54 41 7 56 43 9 57 42 9 56 41 8 55 40 7 55 40 7 
55 41 6 56 42 7 57 43 8 58 44 7 60 44 8 61 46 7 63 48 9 63 48 7 63 48 7 
63 48 9 66 48 10 66 48 12 56 52 5 67 44 3 63 52 6 1 0 0 0 4 0 1 0 0 0 0 2 
1 0 0 1 3 0 251 255 255 255 254 255 48 40 3 47 33 6 42 35 6 43 31 7 42 30 6 
41 29 5 41 29 3 42 30 4 44 32 6 45 34 6 47 36 8 49 35 6 50 36 7 50 36 7 
50 37 5 51 38 6 54 39 8 55 40 9 56 41 10 56 43 9 55 42 8 53 40 6 53 40 6 
53 40 6 54 41 7 54 41 7 54 41 7 57 43 6 58 44 7 59 45 8 59 45 8 59 45 8 
59 45 8 59 45 8 59 45 6 56 46 11 59 43 17 56 45 13 3 1 4 0 2 0 6 0 0 5 0 4 
0 1 0 1 0 4 49 41 5 54 38 5 50 36 9 47 35 11 50 36 9 43 31 7 43 31 7 42 30 6 
43 31 5 43 31 5 44 32 6 45 34 6 46 35 7 48 34 5 50 36 7 50 37 5 50 37 5 
51 38 6 52 39 7 55 40 9 55 40 9 55 42 8 54 41 7 53 40 6 53 40 6 53 40 6 
53 40 6 53 40 6 53 40 6 55 41 6 56 42 7 57 43 8 57 43 8 57 43 8 57 43 8 
57 43 6 58 44 7 51 44 0 10 1 2 1 0 0 1 0 4 0 1 0 0 2 0 3 0 2 2 4 3 1 0 4 52 44 8 
58 42 9 49 35 8 50 38 14 45 31 4 43 31 5 43 31 5 44 32 6 44 32 6 45 33 7 
45 33 7 45 34 6 45 34 6 46 35 3 47 36 4 50 37 5 50 37 5 51 38 6 52 39 7 
53 40 6 53 40 6 53 40 6 53 40 6 53 40 6 53 40 6 53 40 6 53 40 6 52 39 5 
51 38 4 50 37 5 51 38 6 52 39 7 53 40 6 54 41 7 54 41 7 54 41 7 54 41 7 
51 44 2 6 0 2 1 0 0 1 0 4 1 3 2 0 2 0 1 1 3 1 0 0 0 1 0 0 2 0 1 0 0 46 38 1 
48 34 7 45 38 9 44 32 6 44 32 6 45 33 7 45 33 7 45 33 7 45 33 7 45 33 7 
45 33 7 46 35 5 47 36 4 48 37 5 48 37 5 50 37 5 52 39 7 52 39 7 52 39 5 
52 39 7 52 39 7 53 40 8 53 40 8 53 40 8 52 39 7 50 37 5 49 36 4 48 34 5 
49 35 6 50 36 7 51 37 8 51 37 8 52 39 7 52 39 7 52 39 7 51 42 11 52 38 12 
50 41 8 2 0 3 0 3 0 4 0 0 0 0 2 2 1 0 1 3 0 0 2 0 2 0 1 48 40 3 50 36 9 
41 34 5 45 34 6 45 34 6 45 34 6 45 34 6 45 33 7 45 33 7 45 33 7 45 33 7 
46 35 5 47 36 6 47 36 6 47 36 6 48 37 7 49 38 6 49 38 6 51 38 6 51 37 8 
51 37 8 52 38 9 52 38 9 52 38 9 51 37 8 49 35 6 49 35 6 45 34 6 45 34 6 
46 35 7 47 36 8 48 37 9 48 37 7 49 38 8 49 38 8 48 39 8 52 37 14 51 42 9 
1 0 2 0 2 0 4 0 0 4 0 3 0 1 0 1 0 4 51 43 7 56 40 7 48 34 7 45 33 9 48 34 7 
46 35 7 46 35 7 45 34 6 45 34 6 45 34 6 45 33 7 45 33 7 45 33 7 44 35 6 
44 35 6 44 35 6 45 34 6 46 35 7 47 36 6 47 36 6 47 36 6 47 36 6 48 37 7 
49 38 8 49 38 8 48 37 7 47 36 6 47 36 6 46 35 5 45 33 7 45 33 7 45 34 6 
45 34 6 46 35 7 47 36 8 47 36 8 47 36 8 44 36 0 6 0 4 1 1 0 0 0 2 0 1 0 0 3 1 
4 0 3 0 1 0 3 1 6 47 39 3 52 36 3 51 37 10 44 32 8 47 33 6 46 35 5 46 35 5 
45 34 6 45 34 6 44 33 5 44 32 6 44 32 6 44 32 6 43 33 6 43 33 6 42 32 5 
42 32 5 43 33 6 45 34 6 45 34 6 45 34 6 46 35 7 47 36 8 47 36 8 47 36 8 
46 35 7 46 35 7 46 35 7 46 35 7 46 34 8 45 33 7 44 32 6 43 32 4 44 33 5 
45 34 6 45 34 6 45 34 6 42 36 0 4 0 4 0 0 0 0 0 2 0 3 2 0 3 1 1 1 3 1 0 0 
0 1 0 0 3 1 2 0 1 45 37 0 47 33 6 42 35 6 46 35 5 45 34 4 45 34 6 45 34 6 
44 33 5 44 32 6 44 32 6 43 31 5 42 32 7 42 32 7 41 31 6 40 30 5 41 31 4 
44 32 6 44 32 6 43 31 5 45 34 6 46 35 7 46 35 7 46 35 7 45 34 6 45 34 6 
45 34 6 45 34 6 46 34 8 44 32 6 43 32 4 42 31 3 42 31 3 43 32 4 44 33 5 
44 33 5 44 34 7 46 31 10 45 36 5 0 0 2 0 4 0 4 0 0 0 2 0 1 0 0 0 0 2 0 1 0 
0 1 0 40 35 3 44 32 8 44 35 2 45 34 6 46 35 5 46 35 5 46 35 5 44 33 3 42 33 4 
42 32 5 42 32 7 40 30 5 40 30 5 39 29 4 39 29 4 40 30 5 41 31 6 39 31 8 
39 31 8 41 31 6 42 32 7 43 33 8 43 33 8 42 32 7 41 31 6 42 32 7 43 33 8 
42 32 5 42 32 5 41 31 4 41 31 4 41 31 4 42 32 5 42 32 5 42 32 5 43 34 19 
39 28 0 43 34 17 1 0 0 1 0 7 10 0 0 1 0 4 0 1 0 3 0 2 47 36 8 49 33 7 44 35 6 
43 33 6 46 31 8 45 34 6 46 35 7 46 35 5 45 34 4 43 34 5 42 33 4 41 31 4 
41 31 6 40 30 5 39 29 4 39 29 4 39 29 4 39 29 4 40 29 7 37 29 6 37 29 6 
39 29 4 40 30 5 41 31 6 41 31 6 40 30 5 40 30 5 41 31 6 41 31 6 42 32 7 
41 31 6 40 30 5 40 30 5 40 30 5 41 31 6 40 30 5 40 30 5 38 32 0 255 255 250 
252 254 251 3 1 2 0 0 0 0 1 0 1 0 4 1 2 0 3 0 2 46 35 7 48 32 6 43 34 5 
45 35 8 45 30 7 45 34 6 45 34 6 46 35 5 45 34 4 43 34 5 41 31 4 40 30 5 
40 30 5 39 29 4 39 29 4 39 29 4 39 28 6 38 27 5 36 28 5 35 27 4 34 26 3 
37 27 2 38 28 3 39 29 4 39 29 4 39 29 4 38 28 3 38 28 3 39 29 4 38 30 7 
37 29 6 37 29 6 37 29 6 37 29 6 37 29 6 37 29 6 37 29 6 38 31 2 255 255 250 
252 254 251 0 0 0 2 2 2 0 1 0 0 3 0 1 0 0 0 0 2 252 255 255 254 255 255 
40 35 3 43 31 7 44 35 2 44 32 6 45 34 6 45 34 6 44 35 6 43 34 5 41 31 4 
40 30 5 39 28 6 38 27 5 38 27 5 38 27 5 38 27 5 36 28 5 35 27 6 33 25 4 
33 25 4 34 26 3 34 26 3 35 27 4 35 27 4 35 27 4 34 26 3 34 26 3 34 26 3 
35 27 4 35 27 4 35 27 4 35 27 4 35 27 4 35 27 4 35 27 4 35 27 4 34 24 14 
36 27 0 38 31 13 2 1 0 1 0 6 7 0 0 0 3 0 1 0 0 0 0 2 252 255 255 254 255 255 
40 35 3 43 31 7 43 34 1 43 31 5 43 33 6 43 34 5 43 34 5 43 33 6 42 32 5 
40 30 5 39 28 6 37 26 4 38 27 5 38 27 7 36 28 7 35 27 6 34 26 5 32 24 3 
32 24 3 32 24 3 33 25 4 34 26 5 34 26 5 34 26 5 33 25 4 33 25 4 33 25 4 
32 25 6 32 25 6 32 25 6 32 25 6 33 26 7 33 26 7 33 26 7 33 26 7 37 27 18 
34 24 0 32 25 7 0 0 0 0 0 5 8 0 0 1 0 4 1 2 0 3 0 2 46 35 7 48 32 6 44 35 6 
44 34 7 43 28 5 41 31 4 42 32 5 42 32 5 43 33 6 42 32 5 41 31 6 38 30 7 
37 29 6 36 25 5 37 26 6 35 27 6 35 27 6 34 26 7 32 24 5 31 23 4 31 23 4 
30 23 4 31 24 5 32 25 6 32 25 6 32 25 6 31 24 5 30 23 4 30 23 4 29 22 3 
30 23 4 30 23 4 31 24 5 31 24 5 31 24 5 31 24 5 31 24 5 29 23 0 2 1 0 0 2 1 
1 1 1 1 1 1 0 1 0 1 0 4 0 1 0 3 0 2 46 35 7 49 33 7 44 35 6 42 32 5 43 28 5 
40 30 5 41 31 4 41 31 4 42 32 5 42 32 5 38 31 5 37 29 6 35 27 6 34 26 5 
34 26 7 34 26 7 33 25 6 32 24 5 31 23 4 29 22 3 29 22 3 29 22 3 30 23 4 
31 24 5 31 24 5 31 24 5 30 23 4 29 22 3 29 22 3 28 21 3 28 21 3 29 22 4 
29 22 4 28 21 3 28 21 3 28 21 3 28 21 3 28 22 0 1 0 0 0 1 0 0 0 0 3 3 3 0 4 3 
0 2 0 1 0 0 0 0 2 0 1 0 0 1 0 41 36 4 42 30 6 41 32 0 40 30 5 40 30 3 40 30 3 
41 31 4 41 31 4 38 31 5 35 27 4 34 26 5 33 25 6 34 26 7 34 26 7 33 25 6 
31 23 4 29 21 2 28 21 3 28 21 3 29 22 4 29 22 4 30 23 5 30 23 5 30 23 5 
30 23 5 29 22 4 28 21 3 27 20 4 27 20 4 28 21 5 28 21 5 27 20 4 26 19 3 
26 19 3 26 19 3 25 16 11 28 18 0 24 17 1 1 2 0 0 0 5 6 0 0 0 0 0 0 1 0 0 0 2 
1 3 2 2 0 1 35 34 3 39 31 10 38 28 1 37 26 4 38 27 5 37 29 6 38 30 7 37 29 6 
37 29 6 36 29 3 35 28 2 33 25 4 33 25 6 32 24 5 31 23 4 29 22 4 27 20 2 
26 19 1 26 19 1 28 21 3 28 21 3 29 22 4 29 22 4 29 22 6 28 21 5 26 19 3 
25 18 2 24 17 1 24 18 2 24 18 2 24 18 4 23 17 3 22 16 4 22 16 4 23 17 5 
20 19 1 19 17 4 13 12 7 3 2 0 1 0 0 2 1 0 0 0 4 1 0 0 7 0 3 41 34 5 43 32 4 
44 32 6 38 27 5 38 27 7 37 26 4 37 26 4 36 28 5 37 29 6 37 29 6 36 28 5 
35 27 4 34 26 3 33 25 6 32 24 5 31 23 4 29 22 3 28 21 3 27 20 2 27 20 4 
27 20 4 27 20 2 27 20 2 27 20 2 28 21 5 27 20 4 26 19 3 25 18 2 25 18 2 
23 17 1 23 17 1 23 17 3 22 16 2 22 16 4 21 15 3 19 15 3 19 15 3 16 13 4 
255 255 250 255 254 255 1 0 4 1 0 5 1 0 2 0 1 5 1 0 0 7 0 3 41 34 5 42 31 3 
43 31 5 37 26 4 37 26 6 34 26 5 35 27 6 35 27 6 36 28 5 36 28 5 35 27 4 
32 26 2 31 25 1 32 24 5 31 23 4 29 22 4 28 21 3 28 21 3 27 20 4 27 20 4 
27 20 4 25 19 3 25 19 3 25 19 3 25 19 3 24 18 2 24 18 4 23 17 3 23 17 3 
23 17 3 22 16 2 22 16 2 21 15 3 18 14 2 18 14 2 18 14 3 17 13 2 14 11 2 
255 255 250 255 253 254 1 0 4 2 0 5 1 0 2 0 0 0 0 2 0 0 0 2 1 3 2 1 0 0 33 32 1 
36 28 7 35 25 0 34 26 5 34 26 5 35 27 6 35 27 6 34 26 5 32 26 4 31 25 3 
30 24 2 30 23 5 29 22 4 28 21 3 27 20 2 27 20 4 25 19 3 25 19 5 26 20 6 
24 18 4 24 18 4 24 18 4 23 17 3 23 17 3 22 16 2 22 16 4 22 16 4 23 17 3 
22 16 2 21 15 3 19 15 3 18 14 3 18 14 3 17 13 2 16 12 1 14 12 0 13 10 1 
9 8 3 1 1 0 0 0 0 1 0 0 0 0 0 0 2 0 0 0 2 0 2 1 1 0 0 33 32 1 37 29 8 37 27 0 
35 27 6 34 26 5 34 26 5 34 26 7 32 25 6 31 24 5 30 23 4 29 22 3 29 22 4 
28 21 3 27 20 4 25 19 3 24 18 4 24 18 4 24 18 4 24 18 4 23 17 3 23 17 3 
23 17 5 22 16 4 22 16 4 21 15 3 21 15 3 21 15 3 19 15 3 19 15 3 19 15 3 
19 15 4 19 15 4 16 13 4 15 12 3 13 10 1 11 9 0 11 11 1 9 8 3 0 0 0 0 0 0 1 0 0 
0 1 5 1 0 0 6 0 2 39 32 3 40 29 1 42 30 4 38 27 5 40 29 9 35 27 6 34 26 5 
33 25 6 31 24 5 31 24 5 30 23 5 29 22 4 28 21 3 27 21 5 26 20 4 25 19 3 
24 18 4 23 17 3 22 16 2 19 15 3 19 15 3 20 16 4 20 16 4 19 15 3 19 15 4 
18 14 3 18 14 3 18 14 3 18 14 3 18 14 2 18 14 3 19 15 4 19 15 4 17 14 5 
15 12 3 13 10 1 12 9 2 8 4 1 255 254 252 255 255 255 0 0 4 0 0 4 2 2 4 0 1 5 
1 0 0 6 0 2 39 32 3 40 29 1 42 30 4 38 27 5 40 29 9 36 28 7 34 26 7 30 23 4 
29 22 3 29 22 4 29 22 4 28 21 5 27 20 4 25 19 3 24 18 2 24 18 4 22 16 2 
21 15 3 18 14 2 18 14 2 17 13 1 18 14 3 18 14 3 17 13 2 17 13 2 17 13 2 
16 12 3 16 12 3 16 12 3 15 11 0 16 12 1 16 14 2 16 13 4 15 12 3 13 10 3 
12 9 2 11 8 1 9 5 4 255 253 254 255 255 255 0 0 4 1 0 5 2 2 4 0 0 0 0 2 0 
0 0 2 0 2 1 1 0 0 33 32 1 37 29 8 38 28 1 36 28 7 33 25 6 30 23 4 28 21 3 
28 21 3 28 21 5 27 20 4 27 20 4 24 18 4 23 17 3 23 17 3 22 16 2 19 15 3 
18 14 2 17 13 1 17 13 2 16 12 1 16 12 1 16 12 1 16 12 1 15 11 2 15 11 2 
14 10 1 14 10 1 13 11 0 14 12 0 15 12 3 14 11 2 13 10 1 12 9 2 11 8 1 8 8 0 
7 7 0 8 7 2 6 7 2 0 0 0 0 0 0 0 1 0 6 0 5 6 1 8 0 0 4 4 3 0 6 0 0 36 25 7 
37 26 6 39 28 8 32 25 7 32 25 7 28 21 5 31 23 10 30 22 9 25 17 6 23 17 5 
23 16 6 23 17 5 22 16 4 23 19 7 18 14 2 16 12 0 18 14 2 17 13 2 15 11 0 
11 8 1 15 12 5 14 11 4 15 12 5 12 9 4 9 6 1 10 7 2 11 8 3 10 7 2 11 8 3 12 9 4 
11 8 3 11 8 3 11 8 3 10 7 2 9 6 1 6 5 1 8 7 3 6 5 1 2 1 0 1 0 0 1 0 0 1 1 11 
0 0 2 1 1 0 32 28 3 36 27 0 40 31 2 34 29 10 1 1 0 6 0 0 28 23 3 28 23 3 
4 0 0 4 0 0 24 21 4 24 21 4 255 252 248 255 252 249 20 17 2 19 17 2 255 254 251 
255 254 251 15 13 0 14 12 0 4 0 0 4 3 0 9 8 3 8 7 2 1 0 0 1 0 0 10 9 5 9 8 4 
255 255 251 255 255 251 5 4 0 7 6 2 1 0 0 1 0 0 7 6 2 4 3 0 255 255 251 
255 254 250 5 4 0 9 8 6 1 0 0 1 0 0 3 2 0 0 2 0 0 3 0 3 3 0 35 31 19 36 29 11 
30 23 5 28 29 13 0 3 0 3 0 0 25 23 10 24 25 11 1 0 0 5 4 2 19 20 6 17 18 4 
255 254 252 255 254 255 21 21 9 13 13 3 253 251 254 255 253 255 15 15 5 
9 11 0 0 0 4 0 1 0 8 9 4 11 11 9 1 1 0 2 2 0 1 1 0 0 0 0 255 255 253 
254 254 252 7 7 5 4 4 2 0 0 0 0 0 0 4 4 2 7 7 5 253 253 251 255 255 253 
9 9 7 5 5 3 0 0 0 0 0 0 1 1 1 4 0 0 0 0 0 0 1 0 0 2 0 0 1 0 3 0 0 1 0 0 0 0 4 
1 1 3 0 0 0 1 1 1 0 0 0 0 2 1 0 1 0 2 4 1 1 3 0 0 0 0 0 0 0 2 2 2 5 5 5 0 0 0 
1 1 1 1 3 2 0 0 2 0 0 0 0 0 0 0 0 0 0 0 0 0 0 0 0 0 0 4 4 4 0 0 0 1 1 1 0 0 0 
0 0 0 1 1 1 1 1 1 0 0 0 0 0 0 2 2 2 1 1 1 0 0 0 0 0 0 0 0 0 2 2 2 0 0 0 3 0 0 
2 2 4 0 4 7 0 1 4 0 0 0 2 0 1 1 0 4 3 2 10 0 0 5 0 0 4 4 3 8 0 0 4 0 0 4 1 2 4 
0 0 2 0 0 2 1 1 1 3 3 3 0 0 0 0 0 0 4 4 6 0 0 2 0 0 2 0 0 2 1 1 0 0 0 0 3 3 1 
0 0 0 0 0 0 4 4 4 0 0 0 0 0 0 0 0 0 2 2 2 0 0 0 1 1 1 1 1 1 0 0 0 2 2 2 0 0 0 
0 0 0 2 2 2 0 0 0 0 0 0 2 2 2 0 0 0 0 2 0 0 1 0 0 0 0 7 1 1 7 0 0 7 0 0 3 3 0 
0 2 0 3 0 7 1 0 0 1 0 0 2 0 6 3 2 8 0 1 0 5 6 0 0 0 5 1 0 2 3 3 0 5 5 0 1 0 4 
1 0 4 6 6 0 0 1 0 0 0 4 0 1 0 0 1 0 0 0 0 0 0 0 0 0 0 0 0 0 5 5 3 0 0 0 0 0 0 
0 0 0 3 3 1 0 0 0 0 0 0 2 2 0 0 0 0 0 0 0 0 0 0 0 0 0 4 4 2 0 0 0 0 0 0 0 0 0 
